<?xml version="1.0" encoding="UTF-8"?>
<svg width="31px" height="28px" viewBox="0 0 31 28" version="1.1" xmlns="http://www.w3.org/2000/svg" xmlns:xlink="http://www.w3.org/1999/xlink">
    <title>Icon/Arrow/Right/Medium</title>
    <defs>
        <filter x="-7.5%" y="-36.5%" width="115.1%" height="172.9%" filterUnits="objectBoundingBox" id="filter-1">
            <feOffset dx="0" dy="0" in="SourceAlpha" result="shadowOffsetOuter1"></feOffset>
            <feGaussianBlur stdDeviation="4.5" in="shadowOffsetOuter1" result="shadowBlurOuter1"></feGaussianBlur>
            <feColorMatrix values="0 0 0 0 0   0 0 0 0 0   0 0 0 0 0  0 0 0 0.10309222 0" type="matrix" in="shadowBlurOuter1" result="shadowMatrixOuter1"></feColorMatrix>
            <feMerge>
                <feMergeNode in="shadowMatrixOuter1"></feMergeNode>
                <feMergeNode in="SourceGraphic"></feMergeNode>
            </feMerge>
        </filter>
    </defs>
    <g id="Concepts-[sketching]" stroke="none" stroke-width="1" fill="none" fill-rule="evenodd">
        <g id="#1-Landing-Page----Scroll-—-PHILIP-Copy-2" transform="translate(-793.000000, -5006.000000)" fill="#FFFFFF">
            <g id="Call-To-Action-Copy" transform="translate(0.000000, 4856.000000)">
                <g id="Button/Negative/Small-Copy-3" filter="url(#filter-1)" transform="translate(605.000000, 140.000000)">
                    <g id="Icon/Arrow/Right/Medium" transform="translate(196.000000, 18.000000)">
                        <path d="M8.70710678,0.292893219 L13.7071068,5.29289322 C13.7355731,5.32135953 13.7623312,5.35153408 13.787214,5.38324992 L13.7071068,5.29289322 C13.7425008,5.32828727 13.774687,5.36567442 13.8036654,5.40469339 C13.8215099,5.42886931 13.8382813,5.45372505 13.8539326,5.47933981 C13.8613931,5.49138689 13.8685012,5.50360556 13.8753288,5.5159379 C13.8862061,5.53570605 13.8966234,5.5561086 13.9063462,5.57690085 C13.914321,5.5939015 13.9218036,5.61120435 13.9287745,5.62866398 C13.9366843,5.6484208 13.9438775,5.66820232 13.9504533,5.68826359 C13.9552713,5.70314866 13.9599023,5.71853672 13.9641549,5.73400703 C13.9701664,5.75556352 13.9753602,5.77725392 13.9798348,5.7992059 C13.9832978,5.81662474 13.9863719,5.83405099 13.9889822,5.85153313 C13.9920328,5.87147534 13.9944666,5.89211395 13.9962623,5.91293499 C13.9978436,5.93173451 13.9989053,5.94973363 13.9994829,5.96774538 C13.9998183,5.97778921 14,5.98887338 14,6 L13.9994506,6.03324678 C13.9988772,6.05059097 13.997855,6.06792309 13.996384,6.08522423 L14,6 C14,6.05062028 13.9962388,6.10036209 13.9889807,6.14896122 C13.9863719,6.16594901 13.9832978,6.18337526 13.9797599,6.20072576 C13.9753602,6.22274608 13.9701664,6.24443648 13.964279,6.26583961 C13.9599023,6.28146328 13.9552713,6.29685134 13.9502619,6.31214252 C13.9438775,6.33179768 13.9366843,6.3515792 13.928896,6.37105852 C13.9218036,6.38879565 13.914321,6.4060985 13.9063266,6.42322155 C13.8966234,6.4438914 13.8862061,6.46429395 13.8751242,6.48427695 C13.8685012,6.49639444 13.8613931,6.50861311 13.8540045,6.52070875 C13.8382813,6.54627495 13.8215099,6.57113069 13.8036865,6.5951593 C13.7982466,6.60260304 13.7927155,6.60984241 13.7870723,6.61702235 C13.7849289,6.61966276 13.7826279,6.62256244 13.7803112,6.62544899 L13.7071068,6.70710678 L13.7071068,6.70710678 L8.70710678,11.7071068 C8.31658249,12.0976311 7.68341751,12.0976311 7.29289322,11.7071068 C6.90236893,11.3165825 6.90236893,10.6834175 7.29289322,10.2928932 L10.585,7 L1,7 C0.44771525,7 0,6.55228475 0,6 C0,5.44771525 0.44771525,5 1,5 L10.585,5 L7.29289322,1.70710678 C6.90236893,1.31658249 6.90236893,0.683417511 7.29289322,0.292893219 C7.68341751,-0.0976310729 8.31658249,-0.0976310729 8.70710678,0.292893219 Z" id="🎨-Icon-style"></path>
                    </g>
                </g>
            </g>
        </g>
    </g>
</svg>
